<?xml version="1.0" encoding="UTF-8"?>
<svg id="Layer_1" data-name="Layer 1" xmlns="http://www.w3.org/2000/svg" viewBox="0 0 557.57 557.57">
  <path d="M557.57,278.79c0,153.97-124.82,278.79-278.79,278.79S0,432.76,0,278.79,124.82,0,278.79,0s278.79,124.82,278.79,278.79ZM278.42,112.34l50.27,58.14,67.55,79.15,22.41-13.26,55.25,56.69c1.84.3,5.18.88,6.65,1.58l53.88,55.34c13.08-46.71,13.71-94.92.93-140.72C502.95,93.19,396.62,13.07,276.13,13.85c-79.22,1.11-153.57,37.23-203.99,98.59C18.22,178.06-1.1,266.55,22.51,348.7l60.42-64.45,22.89-5.12,54.91-60.44,23.03,11.77,62.05-77.31,32.61-40.8ZM310.21,315.43l21.06,17.26,17.62,9.52c15.73,8.49,31.95,14.92,49.22,19.75l56.26,15.74-76.17-62.52-28.22-22.16,4.6,22.71-23.65-22.56c-2.11-2.01-2.84-4.12-4.49-6.64l-11.82-18.07-25.73-41.09-16.14,6.67,14.28-26.1,44.48,27.36c-4.01-9.57-8.87-16.54-14.45-24.27-4.96-6.53-8.76-13.52-10.13-21.83l-28.91-51.88-24.09,32.91-16.5,23.53-13.63,17.35-15.12,18.81-20.95,26.02-23.54,28.29,10.85-32.41c-5.19-4.96-8.92-9.54-12.88-15.63l-58.81,71.04-1.49-8.54-14.01,2.41-60.92,59.59,9.78,25.66c36.11-11.3,69.53-26.74,103.05-46.2l-6.27,15.55,124.29-89.21,34.61,32.19,17.8,16.75ZM498.7,349.61l-41.46-45.73-19.63-23.4-20.32-23.73-16.42,12.47,15.76,18.35,29.71,33.24,52.36,28.8ZM227.45,545.42c19.03,4.06,42.16,5.62,62.32,4.94,43.41-1.48,74.14-9.95,111.41-31.95-.69-17.34-20.64-29.82-36.49-36.98-16.84-7.6-33.87-13.04-51.63-18.31l-43.93-13.04c-8.93-2.65-21.64-7.67-21.57-13.9.07-5.8,11.09-11.12,19.13-14.35l37.73-15.14c9.77-3.92,22.55-11.6,21.64-20.22-.3-2.79-2.62-7.12-5.39-9.13-15.15-11.04-30.92-20.09-47.02-29.86l-21.24-14.49.69-31.22-29.06,23.53-33.33,28.5,61.47,12.15c13.65,2.7,26.46,6.05,39.58,10.35,3.36,1.1,8.06,4.45,7.35,8.32-.59,3.24-5.35,6.23-8.6,7.24l-43.43,13.58-41.27,13.65c-9.08,3-17.51,8.05-23.88,14.82-5.66,6.01-4.75,13.96,1.21,19.21,7.49,6.6,16.22,11.33,25.64,15.24l43.72,18.17c7.73,3.21,15.12,7.31,21.11,12.79,6.43,5.88,6.45,14.88-.01,20.67-5.79,5.18-12.25,10.07-19.49,13.35l-26.66,12.07Z"/>
</svg>